PathFileType	4	(X/Y/Z)	C:\Users\Biomechanik\Documents\powerlifting_model\powerlifing_model\simulations\Athlete_03\25_03_31\Walking_01\c3dfile.trc
DataRate	CameraRate	NumFrames	NumMarkers	Units	OrigDataRate	OrigDataStartFrame	OrigNumFrames
200.0	200.0	7	53	mm	200.0	784	239	
Frame#	Time	GLAB			RFHD			LFHD			C7			T6			SPINMOL			SPINM2			SPINM3			T12			BELTOL			BELT2			BELT3			SACROL			SACR2			SACR3			LTHOL			LTH2			LTH3			LSHAOL			LSHA2			LSHA3			LHEE			LTOE			LM5			RTHOL			RTH2			RTH3			RSHAOL			RSHA2			RSHA3			RHEE			RTOE			RM5			STRN			XIPH			LACR			LUAOL			LUA2			LUA3			LLAOL			LLA2			LLA3			LWRR			LWRU			RACR			RUAOL			RUA2			RUA3			RLAOL			RLA2			RLA3			RWRR			RWRU			
		X1	Y1	Z1	X2	Y2	Z2	X3	Y3	Z3	X4	Y4	Z4	X5	Y5	Z5	X6	Y6	Z6	X7	Y7	Z7	X8	Y8	Z8	X9	Y9	Z9	X10	Y10	Z10	X11	Y11	Z11	X12	Y12	Z12	X13	Y13	Z13	X14	Y14	Z14	X15	Y15	Z15	X16	Y16	Z16	X17	Y17	Z17	X18	Y18	Z18	X19	Y19	Z19	X20	Y20	Z20	X21	Y21	Z21	X22	Y22	Z22	X23	Y23	Z23	X24	Y24	Z24	X25	Y25	Z25	X26	Y26	Z26	X27	Y27	Z27	X28	Y28	Z28	X29	Y29	Z29	X30	Y30	Z30	X31	Y31	Z31	X32	Y32	Z32	X33	Y33	Z33	X34	Y34	Z34	X35	Y35	Z35	X36	Y36	Z36	X37	Y37	Z37	X38	Y38	Z38	X39	Y39	Z39	X40	Y40	Z40	X41	Y41	Z41	X42	Y42	Z42	X43	Y43	Z43	X44	Y44	Z44	X45	Y45	Z45	X46	Y46	Z46	X47	Y47	Z47	X48	Y48	Z48	X49	Y49	Z49	X50	Y50	Z50	X51	Y51	Z51	X52	Y52	Z52	X53	Y53	Z53	
784	3.915	254.44025	1605.3564	-84.861565	319.02658	1630.6797	-34.690414	181.2942	1624.7404	-39.580902	254.92126	1441.7446	138.4389	252.93256	1275.0032	200.81445	231.31148	1234.8716	209.78502	281.15897	1227.3706	215.05093	246.92131	1170.6959	206.96812	247.10075	1103.76	184.07234	226.98285	1069.2344	221.39578	277.97723	1067.3989	223.70406	247.98466	1006.976	227.22012	220.49635	955.82727	206.82437	272.30386	954.20032	209.62311	243.73358	895.58417	223.29288	43.964027	680.79883	7.3940668	64.998405	607.25433	26.471878	52.869678	625.59698	-18.728441	48.337219	356.12704	-45.054348	70.083961	297.67767	3.9301231	58.246002	294.92084	-44.86792	158.35844	105.39899	21.069283	136.97957	77.837936	-197.84514	49.276371	48.925457	-145.6978	426.97287	696.34772	159.92073	430.66974	633.19635	111.48756	415.12793	636.35352	159.04323	400.19485	349.80002	231.64381	397.04657	274.38141	207.97641	385.47705	293.1261	252.92719	274.15042	83.504807	312.91113	287.14197	44.075527	105.87724	388.39377	39.129253	159.4371	248.16864	1336.7891	-28.741663	250.17044	1191.7531	-41.098732	77.448677	1401.9167	69.959732	-24.800442	1249.9529	102.51944	-42.176666	1190.2256	125.32092	-27.615696	1189.7628	76.448845	-75.72438	987.06122	110.94992	-54.507557	920.40894	147.81288	-78.011452	925.72565	104.02719	-85.504425	823.42249	84.014908	-28.431162	824.927	29.809256	418.92218	1395.7764	47.200321	524.28546	1253.1774	37.541851	529.35956	1198.1208	0.67059809	548.76819	1193.3287	48.401798	568.88519	994.33789	-66.653191	573.70636	977.91278	-144.62976	560.16522	947.84167	-107.1598	550.93829	896.77454	-182.36958	474.70261	911.67816	-208.00983
785	3.92	253.8029	1604.3076	-91.453804	318.34589	1629.6687	-41.2537	180.60307	1623.5607	-46.207245	254.40851	1440.7531	131.77237	252.32938	1274.1069	194.33641	230.68034	1233.9767	203.33006	280.53973	1226.493	208.76425	246.28667	1169.8121	200.67743	246.43358	1102.8076	177.86349	226.26604	1068.1844	215.05864	277.29694	1066.4535	217.54146	247.3502	1005.9652	221.04138	219.92876	954.8197	200.62462	271.7645	953.36902	203.56375	243.30934	894.70905	217.36847	44.948154	678.93066	1.3415753	66.806129	605.61462	20.265169	54.168144	623.82385	-24.840984	48.929657	352.94156	-55.957466	70.491966	292.79123	-9.0183258	58.401505	291.71152	-57.758991	157.2267	99.524979	1.5536119	135.46236	79.511757	-218.17294	47.687927	49.244595	-166.91583	426.84381	696.23962	155.56285	430.61923	632.71887	107.61786	414.96945	636.23022	155.11566	399.99417	350.14474	229.74176	396.93466	274.55093	206.59129	385.29907	293.60349	251.39136	273.98587	84.113297	312.63339	287.06754	44.059044	105.83118	388.33817	39.162815	159.33426	247.77173	1335.4658	-35.271194	249.89668	1190.415	-47.343483	76.951195	1400.7614	63.208313	-25.218277	1248.8931	96.514847	-42.517727	1189.2594	119.63403	-28.087162	1188.5648	70.731613	-76.081497	986.05035	106.42253	-54.727276	919.6272	143.61658	-78.404716	924.68365	99.882622	-85.95134	822.24664	80.536453	-29.116682	823.41199	26.088652	418.43481	1394.7236	40.669224	523.87842	1252.3715	30.806877	529.09119	1197.5382	-6.3518763	548.38202	1192.5032	41.401863	568.43988	994.43152	-75.399849	572.94427	978.93127	-153.57542	559.48395	948.44476	-116.42515	549.89484	898.24109	-192.15591	473.67349	913.80499	-217.50937
786	3.925	253.14078	1603.2036	-98.067421	317.64166	1628.6044	-47.839176	179.88872	1622.3306	-52.853603	253.86288	1439.7151	125.09562	251.68872	1273.1598	187.83887	230.01361	1233.0278	196.85315	279.88715	1225.5673	202.4651	245.62085	1168.8761	194.36369	245.7449	1101.8021	171.62338	225.57712	1067.058	208.6963	276.6438	1065.4379	211.33781	246.75313	1004.8806	214.82349	219.35759	953.76923	194.38849	271.21988	952.50525	197.46774	242.88692	893.79541	211.40538	45.984024	676.92938	-4.5309138	68.741646	603.88489	14.260028	55.510857	621.91003	-30.736252	49.478886	349.78674	-66.817665	70.818817	287.99759	-21.970413	58.517471	288.60056	-70.609062	156.06367	93.992691	-17.986475	133.92574	81.466393	-238.25612	46.076057	49.910431	-187.91473	426.68112	696.13824	151.22278	430.59546	632.25012	103.77828	414.79416	636.11139	151.19987	399.81042	350.49512	227.81566	396.83759	274.72784	205.18684	385.13712	294.09232	249.83353	273.84512	84.750122	312.35843	287.00104	44.050407	105.78384	388.29236	39.18576	159.22289	247.35065	1334.097	-41.815678	249.59047	1189.0334	-53.612221	76.421547	1399.5626	56.430313	-25.662722	1247.7814	90.438683	-42.891682	1188.2407	113.8623	-28.577993	1187.3206	64.932571	-76.458641	984.99756	101.80124	-54.972832	918.80798	139.33099	-78.819603	923.60223	95.649925	-86.423607	821.03802	76.974358	-29.814138	821.85242	22.30488	417.91928	1393.6144	34.131527	523.43494	1251.5052	24.075062	528.78778	1196.8904	-13.358622	547.96082	1191.6172	34.415985	567.96191	994.45984	-84.083	572.16687	979.86823	-162.44325	558.78088	948.96942	-125.6137	548.84009	899.63354	-201.84521	472.63702	915.83783	-226.91306
787	3.93	252.45244	1602.0481	-104.70229	316.91257	1627.4905	-54.447136	179.14993	1621.0541	-59.519566	253.28246	1438.6334	118.40934	251.01054	1272.1641	181.32156	229.31161	1232.0275	190.35353	279.20123	1224.5959	196.15163	244.92429	1167.8896	188.02393	245.03569	1100.7455	165.34862	224.91533	1065.8606	202.30864	276.0166	1064.3567	205.09268	246.19162	1003.7277	208.56569	218.77809	952.68127	188.11258	270.66452	951.61572	191.33409	242.46233	892.84985	205.40231	47.060783	674.80847	-10.226791	70.784424	602.07672	8.4513941	56.887001	619.86713	-36.42033	49.977802	346.68192	-77.635048	71.054054	283.32227	-34.914726	58.590603	285.6059	-83.410095	154.87056	88.820213	-37.510609	132.38794	83.699013	-258.0629	44.456944	50.914993	-208.66513	426.483	696.0434	146.89552	430.59738	631.79205	99.962906	414.60126	635.99689	147.28978	399.6431	350.85239	225.8566	396.75174	274.91409	203.75389	384.99066	294.59418	248.2458	273.72684	85.419914	312.0834	286.94019	44.050022	105.73683	388.2558	39.199886	159.1037	246.90446	1332.6882	-48.375816	249.25168	1187.6133	-59.905773	75.858681	1398.3231	49.626793	-26.135611	1246.6207	84.290733	-43.299702	1187.1711	108.00451	-29.088697	1186.0333	59.050655	-76.856499	983.90491	97.084152	-55.245228	917.95325	134.95419	-79.256882	922.48352	91.327316	-86.921745	819.79846	73.326317	-30.524908	820.2514	18.454832	417.37372	1392.453	27.587574	522.953	1250.5839	17.344461	528.4472	1196.1805	-20.351002	547.50317	1190.6754	27.442574	567.45129	994.42444	-92.701149	571.37396	980.72345	-171.23219	558.05627	949.41699	-134.72287	547.77405	900.95013	-211.43579	471.59406	917.77405	-236.21997
788	3.935	251.73643	1600.8444	-111.35819	316.15714	1626.3312	-61.077675	178.38556	1619.7352	-66.204681	252.66553	1437.5111	111.71406	250.29495	1271.1232	174.78455	228.57484	1230.9781	183.83087	278.48209	1223.5814	189.82181	244.19728	1166.8546	181.65509	244.30659	1099.6406	159.03587	224.27888	1064.5992	195.89543	275.41287	1063.2148	198.8058	245.66277	1002.5125	202.2673	218.18501	951.56128	181.79358	270.09232	950.70709	185.16162	242.03113	891.87885	199.35867	48.165829	672.58295	-15.75239	72.910164	600.20215	2.8311117	58.284264	617.7088	-41.902466	50.41975	343.64627	-88.407707	71.188354	278.79013	-47.836914	58.617886	282.74432	-96.151741	153.64844	84.021111	-56.974773	130.86772	86.20121	-277.55988	42.847092	52.245266	-229.13634	426.24799	695.95459	142.57463	430.62311	631.34589	96.164101	414.38998	635.88635	143.37793	399.491	351.2178	223.85645	396.67398	275.11176	202.28416	384.85886	295.11035	246.62077	273.62912	86.127365	311.80502	286.88248	44.057854	105.69107	388.22757	39.206844	158.9769	246.43234	1331.2448	-54.952324	248.88057	1186.1602	-66.224724	75.261757	1397.0464	42.798843	-26.638563	1245.4132	78.071121	-43.742702	1186.0515	102.05994	-29.620003	1184.7057	53.085293	-77.276001	982.77435	92.269302	-55.545509	917.06488	130.48421	-79.717606	921.33002	86.913109	-87.446281	818.52991	69.590042	-31.250023	818.61194	14.535648	416.79648	1391.2443	21.037712	522.43024	1249.6124	10.613255	528.0672	1195.413	-27.330606	547.00787	1189.683	20.479963	566.90839	994.32709	-101.25279	570.56561	981.49719	-179.94115	557.31	949.79004	-143.74986	546.69653	902.18933	-220.92589	470.54562	919.61096	-245.42905
789	3.94	250.99152	1599.597	-118.03484	315.37421	1625.1305	-67.730629	177.59444	1618.3783	-72.908463	252.01044	1436.351	105.01003	249.54222	1270.04	168.22792	227.80389	1229.8832	177.28517	277.72955	1222.5267	183.47342	243.43996	1165.7737	175.25436	243.55795	1098.4905	152.68172	223.66489	1063.2805	189.45641	274.82922	1062.0181	192.47719	245.16245	1001.241	195.92761	217.573	950.41431	175.42856	269.49713	949.78479	178.94907	241.58847	890.88873	193.27428	49.284836	670.26917	-21.117205	75.091698	598.27356	-2.6126418	59.689049	615.45074	-47.195427	50.799297	340.69781	-99.131432	71.214569	274.42447	-60.719727	58.596882	280.03076	-108.82105	152.39851	79.604103	-76.330994	129.3839	88.958626	-296.71231	41.263	53.882893	-249.29628	425.97507	695.87122	138.25224	430.66949	630.91235	92.372589	414.15942	635.77979	139.45569	399.35254	351.5929	221.8078	396.60184	275.3233	200.77039	384.74026	295.64246	244.95164	273.54984	86.877144	311.52008	286.82568	44.073116	105.64709	388.20645	39.208138	158.84229	245.93365	1329.7721	-61.54599	248.47774	1184.6799	-72.56974	74.630066	1395.7354	35.947502	-27.173038	1244.1614	71.780266	-44.221539	1184.8839	96.028229	-30.172926	1183.3401	47.036232	-77.718063	981.60852	87.354607	-55.874809	916.14514	125.91912	-80.202858	920.14459	82.405441	-87.997696	817.23462	65.763077	-31.99017	816.93677	10.544638	416.186	1389.9932	14.48227	521.86444	1248.5962	3.8797598	527.64514	1194.5919	-34.299175	546.47327	1188.6456	13.526447	566.33319	994.16956	-109.73637	569.74188	982.18994	-188.56897	556.54181	950.09149	-152.6918	545.6076	903.34943	-230.31352	469.49277	921.34601	-254.53922
790	3.945	250.21649	1598.3105	-124.73189	314.56265	1623.8932	-74.405556	176.7755	1616.9877	-79.630386	251.3158	1435.1566	98.29731	248.75262	1268.9182	161.65192	226.9994	1228.7463	170.71657	276.94354	1221.4343	177.104	242.65244	1164.6492	168.81908	242.78981	1097.2987	146.28288	223.06943	1061.9113	182.99103	274.26108	1060.7717	186.10704	244.68541	999.91956	189.54596	216.93689	949.24548	169.01483	268.87326	948.85406	172.69537	241.12926	889.88586	187.14891	50.402035	667.88483	-26.334127	77.29998	596.30359	-7.8957968	61.086815	613.11047	-52.315929	51.112804	337.85309	-109.79936	71.12896	270.24609	-73.543053	58.526108	277.47772	-121.40218	151.12216	75.572807	-95.527306	127.95467	91.950653	-315.48465	39.720764	55.803909	-269.11169	425.66385	695.7926	133.91922	430.73248	630.49231	88.577629	413.90866	635.6767	135.51338	399.22589	351.97946	219.70415	396.53348	275.55127	199.20645	384.63312	296.19226	243.23251	273.48654	87.674004	311.2251	286.76776	44.094357	105.60505	388.19101	39.205196	158.69933	245.40778	1328.2764	-68.157639	248.04404	1183.1783	-78.94178	73.963028	1394.3933	29.073793	-27.740311	1242.8679	65.418892	-44.736961	1183.6707	89.909439	-30.748571	1181.9386	40.903389	-78.183662	980.40967	82.337868	-56.234352	915.19598	121.25703	-80.713684	918.92981	77.802277	-88.576424	815.91486	61.84304	-32.74572	815.2287	6.4792304	415.54095	1388.7052	7.921514	521.25323	1247.5408	-2.8575478	527.17889	1193.7217	-41.258472	545.89801	1187.5692	6.5802965	565.72607	993.95392	-118.15024	568.90271	982.80206	-197.11455	555.75183	950.32379	-161.54594	544.50751	904.42853	-239.59671	468.43665	922.97632	-263.54944
